HIERARCHY
ROOT Hips
{
	OFFSET 0.000000 0.000000 0.000000
	CHANNELS 6 Xposition Yposition Zposition Zrotation Yrotation Xrotation 
	JOINT LeftUpLeg_virtual
	{
		OFFSET 0.000000 0.000000 0.000000
		CHANNELS 3 Zrotation Yrotation Xrotation
		JOINT LeftUpLeg
		{
			OFFSET 8.479694 -4.795517 -0.379053
			CHANNELS 3 Zrotation Yrotation Xrotation
			JOINT LeftLeg
			{
				OFFSET 0.485052 -32.551468 0.112863
				CHANNELS 3 Zrotation Yrotation Xrotation
				JOINT LeftFoot
				{
					OFFSET 0.438033 -32.635670 -3.012641
					CHANNELS 3 Zrotation Yrotation Xrotation
					JOINT LeftToeBase
					{
						OFFSET 0.970169 -13.225353 11.864223
						CHANNELS 3 Zrotation Yrotation Xrotation
						End Site
						{
							OFFSET 0.000000 0.000000 0.000000
						}
					}
				}
			}
		}
	}
	JOINT RightUpLeg_virtual
	{
		OFFSET 0.000000 0.000000 0.000000
		CHANNELS 3 Zrotation Yrotation Xrotation
		JOINT RightUpLeg
		{
			OFFSET -8.479694 -4.795517 -0.379053
			CHANNELS 3 Zrotation Yrotation Xrotation
			JOINT RightLeg
			{
				OFFSET -0.484100 -32.551483 0.112903
				CHANNELS 3 Zrotation Yrotation Xrotation
				JOINT RightFoot
				{
					OFFSET -0.438985 -32.635651 -3.012681
					CHANNELS 3 Zrotation Yrotation Xrotation
					JOINT RightToeBase
					{
						OFFSET -0.970169 -13.225354 11.864223
						CHANNELS 3 Zrotation Yrotation Xrotation
						End Site
						{
							OFFSET 0.000000 0.000000 0.000000
						}
					}
				}
			}
		}
	}
	JOINT Spine_virtual
	{
		OFFSET 0.000000 0.000000 0.000000
		CHANNELS 3 Zrotation Yrotation Xrotation
		JOINT Spine
		{
			OFFSET 0.000000 7.722015 1.166203
			CHANNELS 3 Zrotation Yrotation Xrotation
			JOINT Spine1
			{
				OFFSET 0.000000 12.024086 0.248766
				CHANNELS 3 Zrotation Yrotation Xrotation
				JOINT Spine2
				{
					OFFSET -0.000000 11.503036 -0.491240
					CHANNELS 3 Zrotation Yrotation Xrotation
					JOINT Neck_virtual
					{
						OFFSET 0.000000 0.000000 0.000000
						CHANNELS 3 Zrotation Yrotation Xrotation
						JOINT Neck
						{
							OFFSET 0.000000 18.430687 -3.123054
							CHANNELS 3 Zrotation Yrotation Xrotation
							JOINT Head
							{
								OFFSET -0.000000 9.051071 1.034021
								CHANNELS 3 Zrotation Yrotation Xrotation
								End Site
								{
									OFFSET 0.000000 0.000000 0.000000
								}
							}
						}
					}
					JOINT LeftShoulder_virtual
					{
						OFFSET 0.000000 0.000000 0.000000
						CHANNELS 3 Zrotation Yrotation Xrotation
						JOINT LeftShoulder
						{
							OFFSET 6.197824 13.665230 -4.064723
							CHANNELS 3 Zrotation Yrotation Xrotation
							JOINT LeftArm
							{
								OFFSET 7.778132 -0.187073 -1.709282
								CHANNELS 3 Zrotation Yrotation Xrotation
								JOINT LeftForeArm
								{
									OFFSET 21.954697 0.000000 -2.041093
									CHANNELS 3 Zrotation Yrotation Xrotation
									JOINT LeftHand
									{
										OFFSET 22.992908 0.000000 -0.870901
										CHANNELS 3 Zrotation Yrotation Xrotation
										End Site
										{
											OFFSET 0.000000 0.000000 0.000000
										}
									}
								}
							}
						}
					}
					JOINT RightShoulder_virtual
					{
						OFFSET 0.000000 0.000000 0.000000
						CHANNELS 3 Zrotation Yrotation Xrotation
						JOINT RightShoulder
						{
							OFFSET -6.197824 13.665230 -4.064723
							CHANNELS 3 Zrotation Yrotation Xrotation
							JOINT RightArm
							{
								OFFSET -7.778132 -0.187073 -1.709282
								CHANNELS 3 Zrotation Yrotation Xrotation
								JOINT RightForeArm
								{
									OFFSET -21.954697 0.000000 -2.041093
									CHANNELS 3 Zrotation Yrotation Xrotation
									JOINT RightHand
									{
										OFFSET -22.992908 0.000000 -0.870901
										CHANNELS 3 Zrotation Yrotation Xrotation
										End Site
										{
											OFFSET 0.000000 0.000000 0.000000
										}
									}
								}
							}
						}
					}
				}
			}
		}
	}
}
MOTION
Frames: 8
Frame Time: 0.033333
-8.876547 80.645508 -12.448866 -179.707919 11.698476 179.273218 -7.399544 1.891936 43.061959 -0.011197 7.110406 -70.003647 2.174805 4.478448 40.025704 -7.536146 -1.634762 -7.655968 0.000000 0.000000 0.000000 -0.507644 -2.769004 43.508134 -7.148689 -11.099460 -65.438212 0.977266 1.350733 41.877727 12.621927 3.590414 0.394448 0.000000 0.000000 0.000000 4.183229 -2.739782 59.461305 -7.506405 -1.070547 22.050219 1.010968 -0.347416 5.071386 -0.014505 0.031024 -0.058583 1.545025 0.075936 7.116033 -3.543436 7.405919 -32.931313 0.000000 0.000000 0.000000 2.024796 1.477267 2.847274 5.250069 -13.968829 -5.369204 -77.917398 -52.562312 24.007818 15.946029 -46.084174 3.017378 0.000000 0.000000 0.000000 -1.978585 2.912999 1.668355 3.385425 19.918276 1.827910 44.724348 61.238868 -0.800892 -9.522511 55.746372 -8.982434 0.000000 0.000000 0.000000 
-8.794738 80.776825 -12.461048 -179.725035 12.058319 179.519255 -7.608691 1.705999 40.368669 -0.161256 7.469803 -67.158047 2.751726 3.981239 39.412917 -8.248580 -1.697095 -7.008324 0.000000 0.000000 0.000000 -1.059059 -2.662552 40.434406 -6.809185 -10.701768 -62.403921 0.967739 1.661390 41.572257 12.866985 3.728208 0.170841 0.000000 0.000000 0.000000 4.235539 -2.597307 55.120419 -7.890453 -0.995329 21.153694 0.961507 -0.041893 5.236455 -0.006681 0.051397 -0.106584 1.458101 0.397974 7.209972 -3.522042 7.390936 -32.263341 0.000000 0.000000 0.000000 2.047289 1.601488 3.078443 4.641029 -14.701376 -4.218282 -76.943611 -49.484420 22.826410 15.938426 -47.739283 3.992247 0.000000 0.000000 0.000000 -2.004778 3.232762 1.984107 4.034670 19.565750 2.853215 45.695690 58.656988 1.917276 -9.944127 56.989985 -9.650355 0.000000 0.000000 0.000000 
-8.689962 80.978020 -12.390581 -179.696253 12.304938 179.755798 -7.684566 1.446890 37.469325 0.045443 7.740874 -64.131808 3.213545 3.728831 38.782979 -8.917251 -1.791885 -5.947648 0.000000 0.000000 0.000000 -1.351117 -2.609736 37.084089 -6.569860 -10.251769 -59.339461 0.986860 2.258934 41.615892 12.880384 3.771811 -0.063235 0.000000 0.000000 0.000000 4.467019 -2.584928 50.534189 -8.204108 -0.947256 20.249194 1.000885 0.192496 5.418193 0.031429 0.034521 -0.034012 1.249599 0.639211 7.283751 -3.565652 7.278320 -31.810691 0.000000 0.000000 0.000000 1.883450 1.912584 3.381562 3.912656 -15.493866 -2.950202 -75.339568 -47.030569 21.154897 15.505446 -49.273285 5.246919 0.000000 0.000000 0.000000 -2.174674 3.445502 2.264878 4.555651 19.186418 3.671915 46.489952 56.270609 4.352818 -10.255709 58.070965 -10.243370 0.000000 0.000000 0.000000 
-8.549593 81.195869 -12.325345 -179.581834 12.612531 179.958245 -7.562795 1.095002 34.510149 0.289620 8.105322 -61.130418 3.376263 3.691544 38.363530 -9.538370 -1.865590 -4.622993 0.000000 0.000000 0.000000 -1.353584 -2.448764 33.770190 -6.617828 -9.378370 -56.132018 1.036716 3.301076 41.561974 12.428112 3.558107 -0.028753 0.000000 0.000000 0.000000 4.740138 -2.527674 46.008465 -8.432260 -0.941547 19.326708 0.964692 0.399832 5.660606 -0.014354 0.030958 -0.027809 1.210633 0.946204 7.480818 -3.511138 7.289348 -31.346784 0.000000 0.000000 0.000000 1.901776 2.176145 3.706794 3.175706 -16.087397 -1.878015 -73.289378 -44.419558 19.147085 14.820812 -50.502480 6.581899 0.000000 0.000000 0.000000 -2.191101 3.781790 2.664434 5.192708 18.821659 4.112967 47.311494 53.733669 6.922884 -10.375285 59.170742 -10.677248 0.000000 0.000000 0.000000 
-8.315893 81.394287 -12.351060 -179.670517 12.841388 179.934299 -6.925717 0.704169 31.687232 0.125959 8.173060 -58.197071 4.285515 4.830851 38.384068 -10.422805 -2.273654 -3.252155 0.000000 0.000000 0.000000 -1.405760 -2.256284 30.632186 -6.729776 -8.484210 -52.942613 0.631173 3.970120 41.945022 11.923978 3.481853 -0.499852 0.000000 0.000000 0.000000 5.004191 -2.307134 41.739764 -8.677695 -0.845931 18.455654 0.981808 0.616384 6.029892 -0.037564 0.071423 0.014713 1.189693 1.113280 7.642664 -3.597016 7.060415 -30.899571 0.000000 0.000000 0.000000 1.931276 2.330332 4.056607 2.347166 -16.589071 -0.713598 -71.152376 -42.104804 17.473251 14.004914 -51.485601 7.945755 0.000000 0.000000 0.000000 -2.162232 3.939088 3.047370 6.181205 18.189835 4.620789 47.952552 51.455848 9.899855 -10.863880 60.342140 -11.352858 0.000000 0.000000 0.000000 
-8.088739 81.534271 -12.469812 -179.654493 12.398349 -179.802216 -6.593594 0.412024 28.699393 0.475645 8.106248 -55.520470 5.039985 5.747663 39.148752 -11.237599 -2.590173 -2.986878 0.000000 0.000000 0.000000 -1.246096 -1.996569 27.822094 -6.681059 -7.875450 -50.097713 0.166374 4.809035 42.302462 11.237361 3.588590 -0.917912 0.000000 0.000000 0.000000 5.451948 -2.238950 37.436724 -8.721099 -0.872161 17.439790 1.092017 0.689696 6.332137 -0.032673 0.020264 0.016263 1.161044 1.248406 7.970289 -3.685810 6.819838 -30.321416 0.000000 0.000000 0.000000 1.929392 2.358844 4.474956 1.438503 -17.036090 0.267922 -69.184523 -39.787256 16.176260 12.752066 -52.010487 9.775990 0.000000 0.000000 0.000000 -2.157796 4.047924 3.487029 7.395155 17.561895 5.074536 48.323530 49.140629 13.166889 -11.555629 61.568343 -12.120008 0.000000 0.000000 0.000000 
-7.862006 81.625107 -12.702975 -179.557122 11.792837 -179.743941 -6.353981 0.230639 26.674966 0.935887 7.995765 -53.460802 5.561639 6.222137 39.755758 -12.084052 -2.940014 -2.978796 0.000000 0.000000 0.000000 -1.102262 -1.972441 25.518756 -6.677926 -7.059526 -47.349443 -0.145348 5.145438 42.351302 10.155697 3.426832 -0.951309 0.000000 0.000000 0.000000 5.648896 -2.334599 33.482779 -8.651326 -0.840195 16.484665 1.129736 0.768549 6.668725 -0.145072 0.002835 0.014617 1.216919 1.380562 8.264805 -3.746022 6.564429 -29.579616 0.000000 0.000000 0.000000 2.043741 2.479456 4.805898 0.484086 -17.211371 1.154630 -67.385649 -37.852041 15.223556 11.473113 -52.243161 11.534709 0.000000 0.000000 0.000000 -2.058320 4.232290 3.853302 8.754013 16.838617 5.355143 47.977486 46.793991 15.913926 -11.980560 62.802005 -12.592120 0.000000 0.000000 0.000000 
-7.596373 81.716881 -12.981506 -179.480692 11.577277 -179.658728 -6.191143 0.175035 24.823870 1.313396 7.897815 -51.507129 5.935149 6.563629 40.102254 -12.781944 -3.221376 -3.106433 0.000000 0.000000 0.000000 -1.051840 -1.906498 23.640168 -6.659067 -6.371142 -44.820999 -0.377424 5.403064 42.070335 9.104141 3.399096 -0.762112 0.000000 0.000000 0.000000 5.697998 -1.854182 29.792189 -8.570747 -0.809424 15.438511 1.183877 0.815292 6.929877 -0.069550 0.005439 0.016101 1.144044 1.426559 8.444591 -3.814698 6.278054 -28.804455 0.000000 0.000000 0.000000 1.975817 2.571694 5.072103 -0.450197 -17.110111 1.891965 -65.653001 -36.285100 14.216113 10.126373 -52.321442 13.295296 0.000000 0.000000 0.000000 -2.116903 4.273090 4.174090 10.089287 15.897146 5.537038 47.018227 44.715425 18.053720 -12.252214 64.005074 -12.881938 0.000000 0.000000 0.000000 
